:SAMPLES-PER-SECOND 30
:FULLY-SPECIFIED
:DEGREES
379
root  -33.1663 35.0135 3.06224 -175.121 79.6901 177.883
RightUpLeg  -3.93051 -6.40339 -2.08291
RightLeg  3.68234 5.09162 0.00110248
RightFoot  4.67843 0.000575736 0.542818
RightToes  -29.6165 -0.141289 -0.25052
Spine  -2.82083 0.194636 -0.292594
Spine1  -5.50173 0.5351 -0.0611869
HEad  -56.9472 2.48452 3.40813
LeftShoulder1  -1.94126e-019 -3.10601e-018 -2.51263e-017
LeftArm  -4.74943 13.1741 -77.87
LeftForeArm  33.7978 -64.157 -20.3049
LeftHand  -0.362361 -0.151177 7.6665
RightShoulder  -4.96962e-017 0 -2.36833e-017
RightArm  -5.97037 -19.9297 68.1444
RightForeArm  59.7995 75.335 37.7708
RightHand  -0.0583684 -3.31885 -2.34372
LeftUpLeg  -3.63579 1.19802 -1.74714
LeftLeg  0.0619979 14.0284 -0.878564
LeftFoot  7.3994 -0.123569 2.01724
LeftToes  -16.229 1.89912e-006 4.45198e-008
380
root  -33.1469 35.0133 3.06378 -175.424 79.5267 177.601
RightUpLeg  -3.94501 -6.07157 -2.11181
RightLeg  3.88904 4.58289 0.0175759
RightFoot  4.52995 0.00265304 0.49202
RightToes  -29.6014 -0.140495 -0.249186
Spine  -2.79077 0.296265 -0.357333
Spine1  -5.42979 0.724914 -0.205668
HEad  -57.3317 1.99792 3.43712
LeftShoulder1  -1.94126e-019 -3.10601e-018 -2.51263e-017
LeftArm  -3.75102 13.3274 -77.5212
LeftForeArm  36.3371 -66.6526 -22.9372
LeftHand  -0.375206 -0.394109 7.62482
RightShoulder  -4.96962e-017 0 -2.36833e-017
RightArm  -4.51395 -20.5018 66.5871
RightForeArm  82.2343 79.706 64.2553
RightHand  -0.0321385 -3.6968 -0.862037
LeftUpLeg  -3.59786 1.37211 -1.77679
LeftLeg  0.0611116 13.6752 -0.857084
LeftFoot  7.43347 -0.121509 1.97737
LeftToes  -16.2633 1.89912e-006 4.45198e-008
381
root  -33.1436 35.0098 3.00497 -175.592 78.7769 177.415
RightUpLeg  -3.92025 -6.82146 -2.23609
RightLeg  4.08879 4.56998 0.0334712
RightFoot  4.38364 0.00197731 0.479052
RightToes  -29.5255 -0.139708 -0.248251
Spine  -2.76068 0.223389 -0.413342
Spine1  -5.36666 0.561833 -0.312625
HEad  -57.6847 1.33487 3.31221
LeftShoulder1  -1.94126e-019 -3.10601e-018 -2.51263e-017
LeftArm  -2.89622 13.8903 -77.419
LeftForeArm  37.9282 -68.075 -24.7358
LeftHand  -0.371454 -0.399944 7.54209
RightShoulder  -4.96962e-017 0 -2.36833e-017
RightArm  -3.11463 -21.2743 64.7395
RightForeArm  116.385 80.3599 101.849
RightHand  -0.016289 -4.08564 0.574938
LeftUpLeg  -3.67859 0.523611 -1.90251
LeftLeg  0.119089 13.8159 -0.85184
LeftFoot  7.41028 -0.122684 1.99034
LeftToes  -15.9565 1.89912e-006 4.45198e-008
382
root  -33.1368 35.0068 2.97603 -175.836 78.1142 177.14
RightUpLeg  -3.8909 -7.03642 -2.31905
RightLeg  4.23883 4.12865 0.041118
RightFoot  4.2134 0.0034956 0.434854
RightToes  -29.2603 -0.138931 -0.247316
Spine  -2.71451 0.181646 -0.502202
Spine1  -5.27913 0.451359 -0.476873
HEad  -58.035 0.693984 3.13312
LeftShoulder1  -1.94126e-019 -3.10601e-018 -2.51263e-017
LeftArm  -2.32358 14.8291 -77.3248
LeftForeArm  38.356 -68.5973 -25.4905
LeftHand  -0.353465 -0.355171 7.23175
RightShoulder  -4.96962e-017 0 -2.36833e-017
RightArm  -1.88144 -22.0228 62.8163
RightForeArm  142.152 77.6784 129.807
RightHand  0.00525753 -4.01828 2.45851
LeftUpLeg  -3.78175 -0.0666464 -1.99408
LeftLeg  0.205051 13.7552 -0.827666
LeftFoot  7.41776 -0.122394 1.98259
LeftToes  -15.9132 1.89912e-006 4.45198e-008
383
root  -33.114 35.007 2.96389 -176.196 77.5832 176.756
RightUpLeg  -3.84711 -7.22786 -2.40561
RightLeg  4.37921 3.77894 0.0469622
RightFoot  4.05159 0.00451623 0.399493
RightToes  -29.1522 -0.138167 -0.246385
Spine  -2.66082 0.185872 -0.636281
Spine1  -5.17851 0.424238 -0.730443
HEad  -58.477 0.0771934 3.06981
LeftShoulder1  -1.94126e-019 -3.10601e-018 -2.51263e-017
LeftArm  -1.98578 15.9522 -77.2328
LeftForeArm  37.703 -68.2178 -24.9804
LeftHand  -0.339874 -0.393162 6.9135
RightShoulder  -4.96962e-017 0 -2.36833e-017
RightArm  -1.02122 -22.6424 61.0517
RightForeArm  154.435 73.9303 144.033
RightHand  0.0342248 -3.89215 4.55752
LeftUpLeg  -3.81564 -0.402461 -2.08033
LeftLeg  0.231653 13.5625 -0.810039
LeftFoot  7.48419 -0.121735 1.97077
LeftToes  -15.8764 1.89912e-006 4.45198e-008
384
root  -33.1344 35.0005 2.91305 -176.125 76.4148 176.824
RightUpLeg  -3.81354 -8.56172 -2.51466
RightLeg  4.65099 3.9851 0.0684102
RightFoot  3.85803 0.00334685 0.398757
RightToes  -29.2857 -0.137419 -0.245461
Spine  -2.58941 0.0172845 -0.773966
Spine1  -5.04485 0.0549039 -0.974018
HEad  -59.0903 -0.582544 3.15655
LeftShoulder1  -1.94126e-019 -3.10601e-018 -2.51263e-017
LeftArm  -1.84303 16.9891 -77.2774
LeftForeArm  36.6078 -67.1469 -23.5512
LeftHand  -0.322908 -0.463833 6.49823
RightShoulder  -4.96962e-017 0 -2.36833e-017
RightArm  -0.105455 -23.0339 59.094
RightForeArm  160.936 70.1393 151.906
RightHand  0.0304274 -4.22976 5.8053
LeftUpLeg  -4.03447 -1.79473 -2.15507
LeftLeg  0.462977 13.8246 -0.769968
LeftFoot  7.42549 -0.123038 1.99068
LeftToes  -15.7598 1.89912e-006 4.45198e-008
385
root  -33.1308 34.9977 2.90878 -176.174 75.8264 176.688
RightUpLeg  -3.86044 -8.89153 -2.54151
RightLeg  4.78967 3.7188 0.0729028
RightFoot  3.71022 0.00436527 0.371717
RightToes  -29.2042 -0.136688 -0.244549
Spine  -2.56494 0.0389778 -0.958903
Spine1  -5.0003 0.0566736 -1.323
HEad  -59.6902 -1.18663 3.34177
LeftShoulder1  -1.94126e-019 -3.10601e-018 -2.51263e-017
LeftArm  -1.89914 18.1449 -77.1892
LeftForeArm  35.5556 -65.7003 -21.8034
LeftHand  -0.307997 -0.444541 6.21974
RightShoulder  -4.96962e-017 0 -2.36833e-017
RightArm  1.2123 -23.0889 57.0614
RightForeArm  163.493 66.593 156.616
RightHand  0.00677397 -4.69852 6.34392
LeftUpLeg  -4.20681 -2.12031 -2.18526
LeftLeg  0.558435 13.566 -0.733398
LeftFoot  7.45864 -0.121135 1.96152
LeftToes  -15.818 1.89912e-006 4.45198e-008
